<svg xmlns="http://www.w3.org/2000/svg" xmlns:xlink="http://www.w3.org/1999/xlink" width="500" zoomAndPan="magnify" viewBox="0 0 375 374.999991" height="500" preserveAspectRatio="xMidYMid meet" version="1.0"><defs><g/><clipPath id="6219fb889e"><path d="M 100.09375 60.101562 L 274.84375 60.101562 L 274.84375 238.601562 L 100.09375 238.601562 Z M 100.09375 60.101562 " clip-rule="nonzero"/></clipPath><clipPath id="7af81af516"><path d="M 136.347656 101.8125 L 238.347656 101.8125 L 238.347656 197.0625 L 136.347656 197.0625 Z M 136.347656 101.8125 " clip-rule="nonzero"/></clipPath></defs><g clip-path="url(#6219fb889e)"><path fill="#a6a6a6" d="M 185.535156 60.28125 L 184.851562 60.390625 L 182.808594 60.390625 L 182.125 60.515625 L 181.445312 60.515625 L 180.761719 60.625 L 180.078125 60.625 L 179.398438 60.75 L 178.589844 60.859375 L 177.90625 60.859375 L 177.226562 60.964844 L 176.542969 61.09375 L 175.753906 61.199219 L 177.117188 70.765625 L 176.308594 70.871094 L 175.628906 70.976562 L 174.945312 71.085938 L 174.261719 71.210938 L 173.6875 71.320312 L 173.007812 71.425781 L 172.347656 71.554688 L 171.769531 71.660156 L 171.089844 71.765625 L 170.515625 72 L 169.832031 72.105469 L 169.257812 72.214844 L 168.574219 72.339844 L 168 72.449219 L 167.445312 72.683594 L 166.765625 72.789062 L 166.1875 73.023438 L 165.613281 73.128906 L 164.933594 73.363281 L 164.355469 73.46875 L 163.800781 73.703125 L 163.097656 73.8125 L 162.546875 74.046875 L 161.992188 74.28125 L 161.289062 74.492188 L 160.734375 74.726562 L 160.03125 74.960938 L 159.476562 75.195312 L 158.796875 75.410156 L 158.113281 75.75 L 157.433594 75.984375 L 156.855469 76.324219 L 152.980469 67.335938 L 152.296875 67.675781 L 151.617188 68.015625 L 150.933594 68.230469 L 150.253906 68.589844 L 149.570312 68.933594 L 148.886719 69.273438 L 148.207031 69.613281 L 147.523438 69.957031 L 146.84375 70.296875 L 146.160156 70.636719 L 145.585938 70.976562 L 144.90625 71.425781 L 143.539062 72.105469 L 142.964844 72.449219 L 142.285156 72.917969 L 141.601562 73.257812 L 141.046875 73.703125 L 140.367188 74.046875 L 139.683594 74.492188 L 139.109375 74.960938 L 138.425781 75.304688 L 137.746094 75.75 L 137.171875 76.21875 L 136.488281 76.667969 L 135.914062 77.113281 L 135.230469 77.5625 L 134.65625 78.03125 L 133.976562 78.605469 L 133.292969 79.050781 L 132.738281 79.628906 L 132.058594 80.074219 L 138.085938 87.46875 L 137.617188 87.808594 L 137.171875 88.148438 L 136.828125 88.492188 L 136.359375 88.9375 L 135.914062 89.300781 L 135.464844 89.621094 L 134.207031 90.878906 L 133.761719 91.21875 L 133.292969 91.6875 L 132.84375 92.027344 L 132.503906 92.476562 L 131.589844 93.390625 L 131.140625 93.730469 L 130.671875 94.179688 L 130.351562 94.628906 L 129.882812 95.097656 L 129.4375 95.648438 L 128.519531 96.566406 L 128.074219 97.140625 L 127.730469 97.589844 L 127.261719 98.164062 L 126.816406 98.609375 L 126.367188 99.1875 L 125.898438 99.742188 L 125.453125 100.316406 L 125.113281 100.890625 L 124.644531 101.464844 L 124.195312 102.042969 L 116.566406 96.460938 L 116.226562 97.035156 L 115.886719 97.480469 L 115.4375 98.058594 L 115.097656 98.609375 L 114.757812 99.058594 L 114.394531 99.632812 L 114.074219 100.210938 L 113.605469 100.785156 L 113.265625 101.339844 L 112.925781 101.914062 L 112.582031 102.488281 L 112.242188 103.042969 L 111.902344 103.617188 L 111.5625 104.171875 L 111.21875 104.875 L 110.878906 105.429688 L 110.539062 106.132812 L 110.199219 106.6875 L 109.855469 107.367188 L 109.515625 107.941406 L 109.175781 108.625 L 108.832031 109.304688 L 108.492188 109.988281 L 108.257812 110.671875 L 107.917969 111.351562 L 107.578125 112.035156 L 107.234375 112.714844 L 106.894531 113.398438 L 106.660156 114.207031 L 106.339844 114.890625 L 106 115.675781 L 105.636719 116.464844 L 114.394531 119.875 L 114.183594 120.449219 L 113.949219 121.023438 L 113.714844 121.601562 L 113.5 122.152344 L 113.265625 122.730469 L 113.160156 123.304688 L 112.925781 123.859375 L 112.710938 124.433594 L 112.476562 125.007812 L 112.347656 125.691406 L 112.136719 126.246094 L 112.007812 126.820312 L 111.796875 127.5 L 111.6875 128.078125 L 111.453125 128.652344 L 111.328125 129.3125 L 111.21875 129.886719 L 111.113281 130.589844 L 110.878906 131.144531 L 110.773438 131.828125 L 110.667969 132.507812 L 110.539062 133.191406 L 110.433594 133.871094 L 110.199219 134.554688 L 110.089844 135.234375 L 109.964844 135.917969 L 109.855469 136.597656 L 109.75 137.28125 L 109.621094 137.960938 L 109.515625 138.773438 L 109.410156 139.453125 L 109.410156 140.242188 L 100.417969 139.21875 L 100.289062 139.902344 L 100.289062 140.582031 L 100.183594 141.265625 L 100.183594 142.523438 L 100.078125 143.203125 L 100.078125 155.816406 L 100.183594 156.5 L 100.183594 157.753906 L 100.289062 158.4375 L 100.289062 159.121094 L 100.417969 159.800781 L 109.410156 158.777344 L 109.410156 159.566406 L 109.515625 160.25 L 109.621094 161.058594 L 109.75 161.738281 L 109.855469 162.421875 L 109.964844 163.101562 L 110.089844 163.785156 L 110.199219 164.46875 L 110.433594 165.148438 L 110.539062 165.832031 L 110.667969 166.511719 L 110.773438 167.195312 L 110.878906 167.875 L 111.113281 168.429688 L 111.21875 169.132812 L 111.328125 169.707031 L 111.453125 170.367188 L 111.6875 170.945312 L 111.796875 171.519531 L 112.007812 172.199219 L 112.136719 172.777344 L 112.347656 173.328125 L 112.476562 174.011719 L 112.710938 174.585938 L 112.925781 175.164062 L 113.160156 175.714844 L 113.265625 176.292969 L 113.5 176.867188 L 113.714844 177.421875 L 114.183594 178.570312 L 114.394531 179.144531 L 105.636719 182.554688 L 106 183.34375 L 106.339844 184.132812 L 106.660156 184.8125 L 106.894531 185.625 L 107.234375 186.304688 L 107.578125 186.988281 L 107.917969 187.667969 L 108.257812 188.351562 L 108.492188 189.03125 L 108.832031 189.714844 L 109.175781 190.394531 L 109.515625 191.078125 L 109.855469 191.652344 L 110.199219 192.335938 L 110.539062 192.886719 L 110.878906 193.589844 L 111.21875 194.144531 L 111.5625 194.847656 L 111.902344 195.402344 L 112.242188 195.976562 L 112.582031 196.53125 L 112.925781 197.105469 L 113.265625 197.683594 L 113.605469 198.238281 L 114.074219 198.8125 L 114.394531 199.386719 L 114.757812 199.960938 L 115.097656 200.410156 L 115.4375 200.964844 L 115.886719 201.539062 L 116.226562 201.984375 L 116.566406 202.5625 L 124.195312 196.980469 L 124.644531 197.554688 L 125.113281 198.128906 L 125.453125 198.703125 L 125.898438 199.28125 L 126.367188 199.835938 L 126.816406 200.410156 L 127.261719 200.855469 L 127.730469 201.433594 L 128.074219 201.878906 L 128.519531 202.453125 L 129.4375 203.371094 L 129.882812 203.925781 L 130.351562 204.394531 L 130.671875 204.839844 L 131.140625 205.289062 L 131.589844 205.628906 L 132.058594 206.097656 L 132.503906 206.546875 L 132.84375 206.992188 L 133.292969 207.332031 L 133.761719 207.800781 L 134.207031 208.144531 L 134.65625 208.589844 L 134.996094 208.933594 L 135.464844 209.402344 L 135.914062 209.71875 L 136.359375 210.082031 L 136.828125 210.53125 L 137.171875 210.871094 L 137.617188 211.210938 L 138.085938 211.550781 L 132.058594 218.945312 L 132.738281 219.394531 L 133.292969 219.96875 L 133.976562 220.414062 L 134.65625 220.992188 L 135.230469 221.460938 L 135.914062 221.90625 L 136.488281 222.355469 L 137.171875 222.800781 L 137.746094 223.269531 L 138.425781 223.71875 L 139.109375 224.058594 L 139.683594 224.527344 L 140.367188 224.976562 L 141.046875 225.316406 L 141.601562 225.761719 L 142.285156 226.105469 L 142.964844 226.574219 L 143.539062 226.914062 L 144.90625 227.59375 L 145.585938 228.042969 L 146.160156 228.382812 L 146.84375 228.726562 L 147.523438 229.066406 L 148.207031 229.40625 L 148.886719 229.746094 L 149.570312 230.089844 L 150.253906 230.429688 L 150.933594 230.792969 L 151.617188 231.003906 L 152.296875 231.34375 L 152.980469 231.6875 L 156.855469 222.695312 L 157.433594 223.035156 L 158.113281 223.269531 L 158.796875 223.613281 L 159.476562 223.824219 L 160.03125 224.058594 L 160.734375 224.292969 L 161.289062 224.527344 L 161.992188 224.742188 L 162.546875 224.976562 L 163.097656 225.210938 L 163.800781 225.316406 L 164.355469 225.550781 L 164.933594 225.65625 L 165.613281 225.890625 L 166.1875 225.996094 L 166.765625 226.230469 L 167.445312 226.339844 L 168 226.574219 L 168.574219 226.679688 L 169.257812 226.808594 L 169.832031 226.914062 L 170.515625 227.019531 L 171.089844 227.253906 L 171.769531 227.359375 L 172.347656 227.46875 L 173.007812 227.59375 L 173.6875 227.703125 L 174.261719 227.808594 L 174.945312 227.9375 L 175.628906 228.042969 L 176.308594 228.148438 L 177.117188 228.257812 L 175.753906 237.820312 L 176.542969 237.929688 L 177.226562 238.054688 L 177.90625 238.164062 L 178.589844 238.164062 L 179.398438 238.269531 L 180.078125 238.398438 L 180.761719 238.398438 L 181.445312 238.503906 L 182.125 238.503906 L 182.808594 238.632812 L 184.851562 238.632812 L 185.535156 238.738281 L 190.882812 238.738281 L 191.457031 238.632812 L 192.820312 238.632812 L 193.503906 238.503906 L 194.183594 238.503906 L 194.867188 238.398438 L 195.546875 238.398438 L 196.230469 238.269531 L 196.910156 238.164062 L 197.59375 238.164062 L 196.570312 228.257812 L 197.253906 228.148438 L 198.0625 228.042969 L 198.742188 227.9375 L 199.425781 227.9375 L 200.214844 227.808594 L 200.894531 227.59375 L 201.683594 227.46875 L 202.367188 227.359375 L 203.175781 227.253906 L 203.855469 227.148438 L 204.539062 226.914062 L 205.328125 226.808594 L 206.007812 226.574219 L 206.691406 226.445312 L 207.371094 226.230469 L 208.183594 225.996094 L 208.863281 225.890625 L 209.546875 225.65625 L 210.226562 225.421875 L 210.910156 225.210938 L 211.589844 224.976562 L 212.273438 224.742188 L 212.976562 224.527344 L 213.636719 224.292969 L 214.316406 224.058594 L 215 223.71875 L 215.683594 223.484375 L 216.257812 223.269531 L 216.9375 222.929688 L 217.621094 222.695312 L 218.195312 222.355469 L 218.878906 222.140625 L 222.753906 231.238281 L 223.4375 231.003906 L 224.117188 230.664062 L 224.671875 230.324219 L 225.355469 230.089844 L 225.929688 229.746094 L 226.613281 229.40625 L 227.1875 229.195312 L 227.742188 228.851562 L 228.421875 228.492188 L 228.996094 228.148438 L 229.574219 227.9375 L 230.128906 227.59375 L 230.722656 227.253906 L 231.277344 226.914062 L 231.960938 226.574219 L 232.535156 226.230469 L 232.980469 225.890625 L 233.558594 225.550781 L 234.109375 225.210938 L 234.6875 224.847656 L 235.261719 224.527344 L 235.835938 224.1875 L 236.285156 223.824219 L 236.859375 223.484375 L 237.308594 223.035156 L 237.882812 222.695312 L 238.328125 222.355469 L 238.90625 222.011719 L 239.375 221.566406 L 239.925781 221.226562 L 240.394531 220.882812 L 240.84375 220.414062 L 234.8125 212.46875 L 235.390625 212.128906 L 235.835938 211.660156 L 236.390625 211.210938 L 236.964844 210.871094 L 237.542969 210.421875 L 238.5625 209.402344 L 239.140625 208.933594 L 239.691406 208.484375 L 240.714844 207.460938 L 241.292969 206.992188 L 241.84375 206.4375 L 242.3125 205.863281 L 242.890625 205.417969 L 243.464844 204.839844 L 243.910156 204.265625 L 244.488281 203.691406 L 244.933594 203.242188 L 245.382812 202.667969 L 245.957031 202.113281 L 246.425781 201.539062 L 246.875 200.964844 L 247.320312 200.515625 L 247.769531 199.960938 L 248.238281 199.386719 L 248.578125 198.8125 L 249.023438 198.363281 L 249.386719 197.789062 L 249.835938 197.320312 L 250.175781 196.765625 L 250.515625 196.320312 L 258.484375 202.21875 L 258.933594 201.667969 L 259.273438 201.089844 L 259.742188 200.621094 L 260.0625 200.070312 L 260.421875 199.492188 L 260.871094 198.9375 L 261.210938 198.363281 L 261.554688 197.789062 L 262 197.105469 L 262.339844 196.53125 L 262.683594 195.976562 L 263.023438 195.296875 L 263.363281 194.722656 L 263.703125 194.144531 L 264.046875 193.464844 L 264.386719 192.886719 L 264.75 192.207031 L 265.066406 191.652344 L 265.429688 190.972656 L 265.769531 190.394531 L 266.089844 189.714844 L 266.324219 189.140625 L 266.667969 188.457031 L 266.902344 187.902344 L 267.242188 187.222656 L 267.476562 186.644531 L 267.816406 186.070312 L 268.03125 185.390625 L 268.265625 184.8125 L 268.476562 184.261719 L 268.734375 183.683594 L 268.945312 183.109375 L 259.742188 179.378906 L 260.0625 178.679688 L 260.53125 177.3125 L 260.765625 176.632812 L 260.976562 175.949219 L 261.210938 175.164062 L 261.445312 174.480469 L 261.660156 173.796875 L 261.894531 173.117188 L 262.128906 172.433594 L 262.339844 171.753906 L 262.46875 170.945312 L 262.683594 170.261719 L 262.917969 169.582031 L 263.023438 168.898438 L 263.257812 168.214844 L 263.363281 167.535156 L 263.46875 166.851562 L 263.703125 166.171875 L 263.832031 165.488281 L 263.9375 164.808594 L 264.046875 164.125 L 264.171875 163.445312 L 264.257812 162.761719 L 264.386719 162.082031 L 264.386719 161.378906 L 264.515625 160.824219 L 264.621094 160.140625 L 264.621094 159.460938 L 264.75 158.777344 L 264.75 157.519531 L 274.527344 158.4375 L 274.632812 157.753906 L 274.632812 157.179688 L 274.761719 156.5 L 274.761719 155.816406 L 274.867188 155.136719 L 274.867188 149.679688 L 274.847656 149.511719 L 274.867188 149.339844 L 274.867188 143.886719 L 274.761719 143.203125 L 274.761719 142.523438 L 274.632812 141.839844 L 274.632812 141.265625 L 274.527344 140.582031 L 264.75 141.5 L 264.75 140.242188 L 264.621094 139.5625 L 264.621094 138.878906 L 264.515625 138.195312 L 264.386719 137.644531 L 264.386719 136.941406 L 264.257812 136.257812 L 264.171875 135.578125 L 264.046875 134.894531 L 263.9375 134.210938 L 263.832031 133.53125 L 263.703125 132.847656 L 263.46875 132.167969 L 263.363281 131.484375 L 263.257812 130.804688 L 263.023438 130.121094 L 262.917969 129.441406 L 262.683594 128.757812 L 262.46875 128.078125 L 262.339844 127.265625 L 262.128906 126.585938 L 261.894531 125.902344 L 261.660156 125.222656 L 261.445312 124.539062 L 261.210938 123.859375 L 260.976562 123.070312 L 260.765625 122.386719 L 260.53125 121.707031 L 260.296875 121.023438 L 260.0625 120.34375 L 259.742188 119.640625 L 268.945312 115.910156 L 268.734375 115.335938 L 268.476562 114.761719 L 268.265625 114.207031 L 268.03125 113.632812 L 267.816406 112.949219 L 267.476562 112.375 L 267.242188 111.800781 L 266.902344 111.117188 L 266.667969 110.5625 L 266.324219 109.882812 L 266.089844 109.304688 L 265.769531 108.625 L 265.429688 108.050781 L 265.066406 107.367188 L 264.75 106.8125 L 264.386719 106.132812 L 264.046875 105.558594 L 263.703125 104.875 L 263.363281 104.300781 L 263.023438 103.722656 L 262.683594 103.042969 L 262.339844 102.488281 L 262 101.914062 L 261.554688 101.230469 L 261.210938 100.65625 L 260.871094 100.082031 L 260.421875 99.527344 L 260.0625 98.953125 L 259.742188 98.398438 L 259.273438 97.929688 L 258.933594 97.355469 L 258.484375 96.800781 L 250.515625 102.703125 L 250.175781 102.253906 L 249.835938 101.699219 L 249.386719 101.230469 L 249.023438 100.65625 L 248.578125 100.210938 L 248.238281 99.632812 L 247.769531 99.058594 L 247.320312 98.503906 L 246.875 98.058594 L 246.425781 97.480469 L 245.957031 96.90625 L 245.382812 96.351562 L 244.933594 95.777344 L 244.488281 95.328125 L 243.910156 94.753906 L 243.464844 94.179688 L 242.890625 93.605469 L 242.3125 93.15625 L 241.84375 92.582031 L 241.292969 92.027344 L 240.714844 91.558594 L 239.691406 90.535156 L 239.140625 90.089844 L 238.5625 89.621094 L 238.011719 89.066406 L 237.542969 88.597656 L 236.964844 88.148438 L 236.390625 87.808594 L 235.835938 87.363281 L 235.390625 86.894531 L 234.8125 86.550781 L 240.84375 78.605469 L 240.394531 78.136719 L 239.925781 77.796875 L 239.375 77.453125 L 238.90625 77.007812 L 238.328125 76.667969 L 237.882812 76.324219 L 237.308594 75.984375 L 236.859375 75.535156 L 236.285156 75.195312 L 235.835938 74.835938 L 235.261719 74.492188 L 234.6875 74.171875 L 234.109375 73.8125 L 233.558594 73.46875 L 232.980469 73.128906 L 232.535156 72.789062 L 231.960938 72.449219 L 231.277344 72.105469 L 230.722656 71.765625 L 230.128906 71.425781 L 229.574219 71.085938 L 228.996094 70.871094 L 228.421875 70.53125 L 227.742188 70.167969 L 227.1875 69.828125 L 226.613281 69.613281 L 225.929688 69.273438 L 225.355469 68.933594 L 224.671875 68.699219 L 224.117188 68.355469 L 223.4375 68.015625 L 222.753906 67.78125 L 218.878906 76.878906 L 218.195312 76.667969 L 217.621094 76.324219 L 216.9375 76.089844 L 216.257812 75.75 L 215.683594 75.535156 L 215 75.304688 L 214.316406 74.960938 L 213.636719 74.726562 L 212.976562 74.492188 L 212.273438 74.28125 L 211.589844 74.046875 L 210.910156 73.8125 L 210.226562 73.597656 L 209.546875 73.363281 L 208.863281 73.128906 L 208.183594 73.023438 L 207.371094 72.789062 L 206.691406 72.574219 L 206.007812 72.449219 L 205.328125 72.214844 L 204.539062 72.105469 L 203.855469 71.871094 L 203.175781 71.765625 L 202.367188 71.660156 L 201.683594 71.554688 L 200.894531 71.425781 L 200.214844 71.210938 L 199.425781 71.085938 L 198.742188 71.085938 L 198.0625 70.976562 L 197.253906 70.871094 L 196.570312 70.765625 L 197.59375 60.859375 L 196.910156 60.859375 L 196.230469 60.75 L 195.546875 60.625 L 194.867188 60.625 L 194.183594 60.515625 L 193.503906 60.515625 L 192.820312 60.390625 L 191.457031 60.390625 L 190.882812 60.28125 Z M 187.367188 83.71875 L 191.011719 83.824219 L 194.503906 84.058594 L 198.0625 84.632812 L 201.578125 85.316406 L 205.113281 86.234375 L 208.523438 87.363281 L 211.933594 88.597656 L 215.339844 90.089844 L 218.535156 91.792969 L 221.839844 93.730469 L 224.90625 95.777344 L 227.867188 98.164062 L 230.832031 100.550781 L 233.664062 103.277344 L 236.285156 106.238281 L 238.90625 109.304688 L 238.671875 109.304688 C 241.03125 112.359375 243.136719 115.613281 244.933594 119.066406 L 244.933594 118.980469 L 245.296875 119.789062 C 249.585938 128.277344 252.050781 137.835938 252.222656 147.953125 L 252.199219 147.953125 C 252.214844 148.46875 252.234375 148.992188 252.242188 149.511719 C 252.234375 150.03125 252.214844 150.550781 252.199219 151.066406 L 252.222656 151.066406 C 252.050781 161.183594 249.585938 170.742188 245.296875 179.230469 L 244.933594 180.042969 L 244.933594 179.957031 C 243.136719 183.40625 241.03125 186.660156 238.671875 189.714844 L 238.90625 189.714844 L 236.285156 192.78125 L 233.664062 195.742188 L 230.832031 198.472656 L 227.867188 200.855469 L 224.90625 203.242188 L 221.839844 205.289062 L 218.535156 207.226562 L 215.339844 208.933594 L 211.933594 210.421875 L 208.523438 211.660156 L 205.113281 212.789062 L 201.578125 213.703125 L 198.0625 214.386719 L 194.503906 214.960938 L 191.011719 215.195312 L 187.367188 215.300781 L 183.828125 215.195312 L 180.1875 214.960938 L 176.648438 214.386719 L 173.132812 213.703125 L 169.597656 212.789062 L 166.1875 211.660156 L 162.78125 210.421875 L 159.351562 208.933594 L 156.175781 207.121094 L 152.871094 205.289062 L 149.804688 203.136719 L 146.738281 200.855469 L 143.882812 198.238281 L 141.046875 195.507812 L 138.300781 192.570312 L 135.808594 189.480469 L 135.933594 189.480469 C 133.554688 186.378906 131.46875 183.058594 129.671875 179.550781 L 129.648438 179.699219 L 129.371094 178.953125 C 125.167969 170.53125 122.722656 161.078125 122.554688 151.066406 L 122.574219 151.066406 C 122.558594 150.550781 122.539062 150.03125 122.535156 149.511719 C 122.539062 148.992188 122.558594 148.46875 122.574219 147.953125 L 122.554688 147.953125 C 122.726562 137.949219 125.171875 128.484375 129.371094 120.066406 L 129.648438 119.320312 L 129.671875 119.46875 C 131.46875 115.960938 133.554688 112.644531 135.933594 109.539062 L 135.808594 109.539062 L 138.300781 106.453125 L 141.046875 103.511719 L 143.882812 100.785156 L 146.738281 98.164062 L 149.804688 95.882812 L 152.871094 93.730469 L 156.175781 91.898438 L 159.351562 90.089844 L 162.78125 88.597656 L 166.1875 87.363281 L 169.597656 86.234375 L 173.132812 85.316406 L 176.648438 84.632812 L 180.1875 84.058594 L 183.828125 83.824219 Z M 187.367188 83.71875 " fill-opacity="1" fill-rule="nonzero"/></g><g clip-path="url(#7af81af516)"><path fill="#ffffff" d="M 172.015625 136.074219 L 183.015625 147.074219 L 185.730469 144.359375 L 173.191406 131.820312 C 171.519531 132.136719 169.980469 132.953125 168.710938 134.21875 C 167.445312 135.488281 166.628906 137.027344 166.3125 138.699219 L 178.851562 151.238281 L 181.566406 148.523438 L 170.566406 137.523438 C 170.160156 137.117188 170.160156 136.484375 170.566406 136.074219 C 170.976562 135.667969 171.609375 135.667969 172.015625 136.074219 Z M 196.59375 130.011719 C 196.863281 130.28125 197.183594 130.371094 197.542969 130.28125 C 200.984375 129.421875 204.832031 130.328125 207.5 132.996094 C 210.21875 135.714844 211.121094 139.515625 210.21875 142.957031 C 210.128906 143.316406 210.21875 143.679688 210.488281 143.90625 L 213.113281 146.53125 C 213.523438 146.9375 214.15625 146.9375 214.5625 146.53125 L 227.101562 133.992188 C 227.507812 133.585938 227.507812 132.953125 227.101562 132.542969 L 207.953125 113.398438 C 207.546875 112.992188 206.914062 112.992188 206.507812 113.398438 L 193.96875 125.980469 C 193.5625 126.390625 193.5625 127.023438 193.96875 127.429688 Z M 209.945312 126.617188 C 211.03125 125.527344 212.796875 125.527344 213.929688 126.617188 C 215.015625 127.703125 215.015625 129.46875 213.929688 130.597656 C 212.84375 131.683594 211.078125 131.683594 209.945312 130.597656 C 208.8125 129.511719 208.8125 127.703125 209.945312 126.617188 Z M 228.003906 131.683594 C 228.414062 132.09375 229.046875 132.09375 229.453125 131.683594 L 230.40625 130.734375 C 230.8125 130.328125 230.8125 129.691406 230.40625 129.285156 L 211.214844 110.09375 C 210.804688 109.6875 210.171875 109.6875 209.765625 110.09375 L 208.8125 111.046875 C 208.40625 111.453125 208.40625 112.085938 208.8125 112.492188 Z M 144.632812 130.734375 L 145.582031 131.683594 C 145.988281 132.09375 146.625 132.09375 147.03125 131.683594 L 166.222656 112.492188 C 166.628906 112.085938 166.628906 111.453125 166.222656 111.046875 L 165.273438 110.09375 C 164.863281 109.6875 164.230469 109.6875 163.824219 110.09375 L 144.632812 129.332031 C 144.226562 129.691406 144.226562 130.328125 144.632812 130.734375 Z M 147.890625 134.039062 L 160.429688 146.574219 C 160.835938 146.984375 161.46875 146.984375 161.878906 146.574219 L 164.503906 143.949219 C 164.773438 143.679688 164.863281 143.363281 164.773438 143 C 163.914062 139.558594 164.820312 135.757812 167.488281 133.042969 C 170.207031 130.328125 174.007812 129.421875 177.449219 130.328125 C 177.808594 130.417969 178.171875 130.328125 178.398438 130.054688 L 181.023438 127.429688 C 181.429688 127.023438 181.429688 126.390625 181.023438 125.980469 L 168.53125 113.398438 C 168.125 112.992188 167.488281 112.992188 167.082031 113.398438 L 147.890625 132.589844 C 147.527344 132.996094 147.527344 133.632812 147.890625 134.039062 Z M 161.109375 126.617188 C 162.195312 125.527344 163.960938 125.527344 165.089844 126.617188 C 166.175781 127.703125 166.175781 129.46875 165.089844 130.597656 C 164.003906 131.683594 162.195312 131.683594 161.109375 130.597656 C 160.023438 129.511719 160.023438 127.703125 161.109375 126.617188 Z M 214.472656 106.835938 C 214.066406 106.429688 213.429688 106.429688 213.023438 106.835938 L 212.074219 107.785156 C 211.664062 108.195312 211.664062 108.828125 212.074219 109.234375 L 231.265625 128.425781 C 231.671875 128.832031 232.304688 128.832031 232.714844 128.425781 L 233.664062 127.476562 C 234.070312 127.066406 234.070312 126.433594 233.664062 126.027344 Z M 230.902344 179.4375 L 231.039062 179.300781 C 231.445312 178.894531 231.445312 178.261719 231.039062 177.851562 L 213.523438 160.335938 C 213.113281 159.929688 212.480469 159.929688 212.074219 160.335938 L 211.9375 160.472656 L 211.03125 159.566406 C 210.941406 159.476562 210.761719 159.476562 210.671875 159.566406 L 209.222656 161.015625 C 209.132812 161.105469 209.132812 161.285156 209.222656 161.375 L 210.128906 162.28125 L 209.992188 162.417969 C 208.269531 164.136719 205.511719 164.136719 203.789062 162.417969 L 196.140625 154.769531 L 193.425781 157.484375 L 201.527344 165.585938 C 201.933594 165.992188 201.933594 166.628906 201.527344 167.035156 C 201.121094 167.441406 200.484375 167.441406 200.078125 167.035156 L 192.023438 158.976562 L 189.304688 161.695312 L 196.957031 169.34375 C 198.675781 171.0625 198.675781 173.824219 196.957031 175.542969 L 196.820312 175.679688 L 195.914062 174.773438 C 195.824219 174.683594 195.644531 174.683594 195.550781 174.773438 L 194.105469 176.222656 C 194.011719 176.3125 194.011719 176.496094 194.105469 176.585938 L 195.007812 177.492188 L 194.875 177.625 C 194.464844 178.035156 194.464844 178.667969 194.875 179.074219 L 212.390625 196.589844 C 212.796875 197 213.429688 197 213.839844 196.589844 L 213.972656 196.457031 L 214.609375 197.089844 C 214.699219 197.179688 214.878906 197.179688 214.96875 197.089844 L 216.417969 195.640625 C 216.507812 195.550781 216.507812 195.367188 216.417969 195.277344 L 215.785156 194.644531 L 216.101562 194.328125 C 217.050781 193.378906 218.183594 192.878906 219.542969 192.789062 C 221.488281 192.699219 223.433594 191.882812 224.929688 190.390625 C 226.421875 188.894531 227.234375 186.996094 227.328125 185.003906 C 227.371094 183.644531 227.914062 182.515625 228.867188 181.5625 L 229.183594 181.246094 L 229.816406 181.878906 C 229.90625 181.972656 230.085938 181.972656 230.179688 181.878906 L 231.625 180.433594 C 231.71875 180.34375 231.71875 180.160156 231.625 180.070312 Z M 218.230469 183.738281 C 215.285156 186.679688 210.578125 186.679688 207.636719 183.738281 C 204.695312 180.792969 204.695312 176.085938 207.636719 173.144531 C 210.578125 170.203125 215.285156 170.203125 218.230469 173.144531 C 221.171875 176.085938 221.171875 180.839844 218.230469 183.738281 Z M 159.660156 104.527344 L 157.351562 102.21875 C 157.035156 101.902344 156.582031 101.855469 156.175781 102.039062 C 152.054688 104.121094 148.207031 106.835938 144.769531 110.277344 C 141.328125 113.714844 138.613281 117.5625 136.53125 121.683594 C 136.347656 122.089844 136.394531 122.542969 136.710938 122.859375 L 139.019531 125.167969 C 139.425781 125.574219 140.0625 125.574219 140.46875 125.167969 L 159.660156 105.976562 C 160.023438 105.570312 160.023438 104.933594 159.660156 104.527344 Z M 238.460938 121.683594 C 236.425781 117.5625 233.664062 113.714844 230.222656 110.277344 C 226.785156 106.835938 222.9375 104.121094 218.816406 102.039062 C 218.410156 101.855469 217.957031 101.902344 217.640625 102.21875 L 215.332031 104.527344 C 214.925781 104.933594 214.925781 105.570312 215.332031 105.976562 L 234.523438 125.167969 C 234.929688 125.574219 235.5625 125.574219 235.972656 125.167969 L 238.28125 122.859375 C 238.597656 122.542969 238.640625 122.089844 238.460938 121.683594 Z M 162.917969 109.234375 C 163.324219 108.828125 163.324219 108.195312 162.917969 107.785156 L 161.96875 106.835938 C 161.558594 106.429688 160.925781 106.429688 160.519531 106.835938 L 141.328125 126.027344 C 140.921875 126.433594 140.921875 127.066406 141.328125 127.476562 L 142.277344 128.425781 C 142.6875 128.832031 143.320312 128.832031 143.726562 128.425781 Z M 179.484375 174.730469 C 179.394531 174.640625 179.210938 174.640625 179.121094 174.730469 L 178.21875 175.632812 L 178.082031 175.5 C 176.359375 173.777344 176.359375 171.019531 178.082031 169.296875 L 208.722656 138.65625 C 208.40625 136.980469 207.59375 135.441406 206.324219 134.175781 C 205.058594 132.90625 203.519531 132.09375 201.84375 131.773438 L 171.203125 162.417969 C 169.480469 164.136719 166.71875 164.136719 165 162.417969 L 164.863281 162.28125 L 165.769531 161.375 C 165.859375 161.285156 165.859375 161.105469 165.769531 161.015625 L 164.320312 159.566406 C 164.230469 159.476562 164.050781 159.476562 163.960938 159.566406 L 163.054688 160.472656 L 162.917969 160.335938 C 162.511719 159.929688 161.878906 159.929688 161.46875 160.335938 L 143.953125 177.851562 C 143.546875 178.261719 143.546875 178.894531 143.953125 179.300781 L 144.089844 179.4375 L 143.457031 180.070312 C 143.363281 180.160156 143.363281 180.34375 143.457031 180.433594 L 144.902344 181.878906 C 144.996094 181.972656 145.175781 181.972656 145.265625 181.878906 L 145.898438 181.246094 L 146.214844 181.5625 C 147.167969 182.515625 147.664062 183.644531 147.753906 185.003906 C 147.847656 186.949219 148.660156 188.894531 150.15625 190.390625 C 151.648438 191.882812 153.550781 192.699219 155.539062 192.789062 C 156.898438 192.835938 158.03125 193.378906 158.980469 194.328125 L 159.296875 194.644531 L 158.664062 195.277344 C 158.574219 195.367188 158.574219 195.550781 158.664062 195.640625 L 160.113281 197.089844 C 160.203125 197.179688 160.382812 197.179688 160.472656 197.089844 L 161.109375 196.457031 L 161.242188 196.589844 C 161.652344 197 162.285156 197 162.691406 196.589844 L 180.207031 179.074219 C 180.617188 178.667969 180.617188 178.035156 180.207031 177.625 L 180.074219 177.492188 L 180.976562 176.585938 C 181.070312 176.496094 181.070312 176.3125 180.976562 176.222656 Z M 167.355469 183.738281 C 164.410156 186.679688 159.703125 186.679688 156.761719 183.738281 C 153.820312 180.792969 153.820312 176.085938 156.761719 173.144531 C 159.703125 170.203125 164.410156 170.203125 167.355469 173.144531 C 170.296875 176.085938 170.296875 180.839844 167.355469 183.738281 Z M 173.464844 167.078125 C 173.058594 166.671875 173.058594 166.039062 173.464844 165.632812 L 203.019531 136.074219 C 203.429688 135.667969 204.0625 135.667969 204.46875 136.074219 C 204.875 136.484375 204.875 137.117188 204.46875 137.523438 L 174.914062 167.078125 C 174.503906 167.441406 173.871094 167.441406 173.464844 167.078125 Z M 173.464844 167.078125 " fill-opacity="1" fill-rule="evenodd"/></g><g fill="#ffffff" fill-opacity="1"><g transform="translate(75.325626, 280.969112)"><g><path d="M 14.3125 -24.65625 L 24.265625 0 L 18.234375 0 L 16.40625 -4.9375 L 7.03125 -4.9375 L 5.203125 0 L -0.84375 0 L 9.109375 -24.65625 Z M 14.5 -9.859375 L 11.75 -17.03125 L 11.6875 -17.03125 L 8.9375 -9.859375 Z M 14.5 -9.859375 "/></g></g></g><g fill="#ffffff" fill-opacity="1"><g transform="translate(98.762896, 280.969112)"><g><path d="M 20.75 -24.65625 L 20.75 -8.765625 C 20.75 -5.734375 19.929688 -3.4375 18.296875 -1.875 C 16.660156 -0.320312 14.265625 0.453125 11.109375 0.453125 C 7.960938 0.453125 5.570312 -0.320312 3.9375 -1.875 C 2.3125 -3.4375 1.5 -5.734375 1.5 -8.765625 L 1.5 -24.65625 L 7.109375 -24.65625 L 7.109375 -10.40625 C 7.109375 -8.40625 7.421875 -7.015625 8.046875 -6.234375 C 8.679688 -5.460938 9.703125 -5.078125 11.109375 -5.078125 C 12.523438 -5.078125 13.546875 -5.460938 14.171875 -6.234375 C 14.804688 -7.015625 15.125 -8.40625 15.125 -10.40625 L 15.125 -24.65625 Z M 20.75 -24.65625 "/></g></g></g><g fill="#ffffff" fill-opacity="1"><g transform="translate(121.004384, 280.969112)"><g><path d="M 0.234375 -19.734375 L 0.234375 -24.65625 L 17.578125 -24.65625 L 17.578125 -19.734375 L 11.71875 -19.734375 L 11.71875 0 L 6.09375 0 L 6.09375 -19.734375 Z M 0.234375 -19.734375 "/></g></g></g><g fill="#ffffff" fill-opacity="1"><g transform="translate(138.821483, 280.969112)"><g><path d="M 0.6875 -12.34375 C 0.6875 -15.90625 1.898438 -18.921875 4.328125 -21.390625 C 6.765625 -23.867188 9.695312 -25.109375 13.125 -25.109375 C 16.570312 -25.109375 19.5 -23.875 21.90625 -21.40625 C 24.320312 -18.945312 25.53125 -15.925781 25.53125 -12.34375 C 25.53125 -8.738281 24.34375 -5.703125 21.96875 -3.234375 C 19.59375 -0.773438 16.644531 0.453125 13.125 0.453125 C 9.519531 0.453125 6.546875 -0.765625 4.203125 -3.203125 C 1.859375 -5.648438 0.6875 -8.695312 0.6875 -12.34375 Z M 6.75 -12.34375 C 6.75 -11.050781 6.945312 -9.867188 7.34375 -8.796875 C 7.75 -7.734375 8.445312 -6.832031 9.4375 -6.09375 C 10.4375 -5.351562 11.664062 -4.984375 13.125 -4.984375 C 15.21875 -4.984375 16.796875 -5.703125 17.859375 -7.140625 C 18.921875 -8.578125 19.453125 -10.3125 19.453125 -12.34375 C 19.453125 -14.351562 18.910156 -16.082031 17.828125 -17.53125 C 16.742188 -18.976562 15.175781 -19.703125 13.125 -19.703125 C 11.09375 -19.703125 9.519531 -18.976562 8.40625 -17.53125 C 7.300781 -16.082031 6.75 -14.351562 6.75 -12.34375 Z M 6.75 -12.34375 "/></g></g></g><g fill="#ffffff" fill-opacity="1"><g transform="translate(165.038934, 280.969112)"><g><path d="M 1.796875 -24.65625 L 9.453125 -24.65625 C 11.753906 -24.65625 13.59375 -24.160156 14.96875 -23.171875 C 16.34375 -22.191406 17.03125 -20.59375 17.03125 -18.375 C 17.03125 -15.90625 16.003906 -14.144531 13.953125 -13.09375 C 17.460938 -12.476562 19.21875 -10.40625 19.21875 -6.875 C 19.21875 -4.800781 18.5 -3.132812 17.0625 -1.875 C 15.632812 -0.625 13.664062 0 11.15625 0 L 1.796875 0 Z M 7.40625 -15 L 7.859375 -15 C 9.117188 -15 10.054688 -15.21875 10.671875 -15.65625 C 11.285156 -16.09375 11.59375 -16.8125 11.59375 -17.8125 C 11.59375 -19.488281 10.347656 -20.328125 7.859375 -20.328125 L 7.40625 -20.328125 Z M 7.40625 -4.328125 L 9.171875 -4.328125 C 11.921875 -4.328125 13.296875 -5.242188 13.296875 -7.078125 C 13.296875 -8.179688 12.953125 -8.96875 12.265625 -9.4375 C 11.578125 -9.914062 10.546875 -10.15625 9.171875 -10.15625 L 7.40625 -10.15625 Z M 7.40625 -4.328125 "/></g></g></g><g fill="#ffffff" fill-opacity="1"><g transform="translate(184.948654, 280.969112)"><g><path d="M 14.3125 -24.65625 L 24.265625 0 L 18.234375 0 L 16.40625 -4.9375 L 7.03125 -4.9375 L 5.203125 0 L -0.84375 0 L 9.109375 -24.65625 Z M 14.5 -9.859375 L 11.75 -17.03125 L 11.6875 -17.03125 L 8.9375 -9.859375 Z M 14.5 -9.859375 "/></g></g></g><g fill="#ffffff" fill-opacity="1"><g transform="translate(208.385924, 280.969112)"><g><path d="M 22.5 -24.65625 L 10.28125 -4.9375 L 21.703125 -4.9375 L 21.703125 0 L 0.484375 0 L 12.671875 -19.734375 L 2.21875 -19.734375 L 2.21875 -24.65625 Z M 22.5 -24.65625 "/></g></g></g><g fill="#ffffff" fill-opacity="1"><g transform="translate(231.374768, 280.969112)"><g><path d="M 14.3125 -24.65625 L 24.265625 0 L 18.234375 0 L 16.40625 -4.9375 L 7.03125 -4.9375 L 5.203125 0 L -0.84375 0 L 9.109375 -24.65625 Z M 14.5 -9.859375 L 11.75 -17.03125 L 11.6875 -17.03125 L 8.9375 -9.859375 Z M 14.5 -9.859375 "/></g></g></g><g fill="#ffffff" fill-opacity="1"><g transform="translate(254.812038, 280.969112)"><g><path d="M 14.3125 -24.65625 L 24.265625 0 L 18.234375 0 L 16.40625 -4.9375 L 7.03125 -4.9375 L 5.203125 0 L -0.84375 0 L 9.109375 -24.65625 Z M 14.5 -9.859375 L 11.75 -17.03125 L 11.6875 -17.03125 L 8.9375 -9.859375 Z M 14.5 -9.859375 "/></g></g></g><g fill="#ffffff" fill-opacity="1"><g transform="translate(278.249319, 280.969112)"><g><path d="M 1.796875 -24.65625 L 10.609375 -24.65625 C 12.984375 -24.65625 14.914062 -24.019531 16.40625 -22.75 C 17.90625 -21.488281 18.65625 -19.6875 18.65625 -17.34375 C 18.65625 -15.519531 18.203125 -13.992188 17.296875 -12.765625 C 16.390625 -11.546875 15.15625 -10.6875 13.59375 -10.1875 L 22.09375 0 L 14.9375 0 L 7.40625 -9.75 L 7.40625 0 L 1.796875 0 Z M 7.40625 -13.71875 L 8.078125 -13.71875 C 8.585938 -13.71875 9.019531 -13.726562 9.375 -13.75 C 9.738281 -13.769531 10.148438 -13.835938 10.609375 -13.953125 C 11.066406 -14.078125 11.4375 -14.25 11.71875 -14.46875 C 12 -14.6875 12.238281 -15.003906 12.4375 -15.421875 C 12.632812 -15.835938 12.734375 -16.34375 12.734375 -16.9375 C 12.734375 -17.539062 12.632812 -18.050781 12.4375 -18.46875 C 12.238281 -18.882812 12 -19.203125 11.71875 -19.421875 C 11.4375 -19.640625 11.066406 -19.804688 10.609375 -19.921875 C 10.148438 -20.046875 9.738281 -20.117188 9.375 -20.140625 C 9.019531 -20.160156 8.585938 -20.171875 8.078125 -20.171875 L 7.40625 -20.171875 Z M 7.40625 -13.71875 "/></g></g></g></svg>