<?xml version="1.0" encoding="UTF-8"?>
<svg version="1.1" xmlns="http://www.w3.org/2000/svg" width="512" height="512">
<path d="M0 0 C0.93714844 0.4125 1.87429687 0.825 2.83984375 1.25 C17.48959337 8.48241496 28.18835912 21.15525968 33.5 36.5 C38.37518095 52.57004089 36.88903506 69.89076631 29.3125 84.875 C24.14321 93.55575215 16.08597359 103.62493761 6.43675232 107.39056396 C3.99183026 108.79875592 3.15375866 109.47899519 2.34575081 112.21689606 C2.09380439 115.19776794 2.06939727 118.11106953 2.11352539 121.10253906 C2.10276946 122.25283474 2.09201353 123.40313042 2.08093166 124.58828354 C2.05400955 128.31473592 2.07495177 132.03917867 2.09765625 135.765625 C2.08807486 138.06495672 2.07535973 140.36427759 2.05944824 142.66357422 C2.02245432 151.19230264 2.04617662 159.72120697 2.0625 168.25 C2.041875 187.3075 2.02125 206.365 2 226 C40.28 226 78.56 226 118 226 C118.66 224.35 119.32 222.7 120 221 C125.90265458 210.65664864 133.55515811 203.69876117 144 198 C144.66 198 145.32 198 146 198 C146.10103597 186.62961596 146.14824744 175.26039899 146.12697029 163.88954735 C146.11877635 158.6092578 146.12903816 153.33035463 146.18164062 148.05029297 C146.2317376 142.95330018 146.2331418 137.8583942 146.20095444 132.76128006 C146.19720658 130.81801483 146.21092999 128.87463399 146.24249649 126.93162155 C146.88230673 116.54308703 146.88230673 116.54308703 142.83660889 107.550354 C140.26056767 106.0006113 137.8202052 105.01418781 135 104 C122.50568575 95.37778833 116.11036166 81.92305303 112.390625 67.6640625 C109.87389841 50.49998717 112.91702374 33.54385899 123.20458984 19.33642578 C132.85005875 7.13655027 145.57072847 -1.25183437 161 -4 C173.03964508 -4.89507206 184.82892993 -4.9631913 196 0 C196.92554688 0.40089844 197.85109375 0.80179687 198.8046875 1.21484375 C214.54748095 8.90785188 224.0729239 21.93165581 230.0546875 38.0546875 C234.73311296 52.63126931 232.68639508 69.28075443 226.4375 83 C220.05081636 95.03219659 211.18584837 103.90707581 199 110 C198.67 139.04 198.34 168.08 198 198 C199.65 198.66 201.3 199.32 203 200 C212.80502503 205.22085748 221.28238094 213.9214502 226 224 C226 224.66 226 225.32 226 226 C237.17084443 225.93862637 248.34145837 225.86140361 259.51205254 225.76428509 C264.69975081 225.71967338 269.8873722 225.68039714 275.07519531 225.65356445 C280.08742194 225.62743952 285.09935129 225.58697261 290.11139297 225.53681374 C292.01777557 225.52020698 293.92420952 225.50865433 295.83065414 225.50238609 C309.21027882 225.4539681 321.42245799 225.3212056 332 216 C338.54843171 208.27914165 341.43324411 200.02366682 341.51513672 190.03295898 C341.53324402 189.17496704 341.55135132 188.3169751 341.57000732 187.4329834 C341.62362341 184.62065439 341.65410714 181.80881017 341.6796875 178.99609375 C341.69066593 178.03026934 341.70164436 177.06444492 341.71295547 176.0693531 C341.76944931 170.9649409 341.8073975 165.86077116 341.83056641 160.75610352 C341.85826282 155.4935819 341.95124068 150.23430562 342.05888176 144.97289944 C342.12984093 140.91413885 342.15175117 136.85615838 342.16046524 132.79683113 C342.17320993 130.85701662 342.20442833 128.91722962 342.25472641 126.97802544 C342.93026516 116.38136848 342.93026516 116.38136848 338.57603455 107.30143738 C335.77252911 105.50902138 333.08045678 104.23524099 330 103 C317.34256959 92.89728032 310.19698203 78.85546816 308 63 C306.53109382 46.18355684 310.55459175 31.24089375 320.75 17.75 C330.30816803 6.47857543 344.43954267 -2.89515645 359.47021484 -4.21728516 C378.70219342 -5.08449072 393.85490557 -2.25480736 409.01171875 10.54296875 C421.45474742 22.30697812 427.92175088 36.11826811 428.47045898 53.16918945 C428.56754547 62.67804853 427.91734436 71.1982169 424 80 C423.5875 80.93714844 423.175 81.87429687 422.75 82.83984375 C416.86153569 94.76732969 407.55886214 103.61702075 396 110 C395.34 110 394.68 110 394 110 C394.00888245 111.15463745 394.01776489 112.3092749 394.0269165 113.49890137 C394.10841638 124.44267341 394.16816268 135.38638294 394.20724869 146.33039093 C394.22801952 151.95525375 394.25614281 157.57986928 394.30175781 163.20458984 C394.34559323 168.64464203 394.36921584 174.08445812 394.37950897 179.52467346 C394.38683327 181.58805552 394.40113339 183.65142638 394.42292023 185.71470642 C394.59209938 202.41862117 392.94117376 216.96530586 385 232 C384.52046875 232.95132813 384.0409375 233.90265625 383.546875 234.8828125 C375.10565298 250.57692917 361.76416064 262.44987953 345.875 270.3125 C345.26180908 270.62614502 344.64861816 270.93979004 344.0168457 271.26293945 C329.09935383 278.20290488 313.00741646 278.56548485 296.8984375 278.390625 C294.83908647 278.38314195 292.7797282 278.37745882 290.72036743 278.37347412 C285.36429325 278.35838001 280.00867 278.319243 274.652771 278.2746582 C269.16180517 278.23335045 263.67076473 278.21538816 258.1796875 278.1953125 C247.45292954 278.15272902 236.72650262 278.08468064 226 278 C225.70351563 278.76828125 225.40703125 279.5365625 225.1015625 280.328125 C220.78103532 290.80770157 211.69901985 299.45770294 202 305 C200.6736554 305.3601373 199.34080581 305.69812473 198 306 C197.89896403 317.37038404 197.85175256 328.73960101 197.87302971 340.11045265 C197.88122365 345.3907422 197.87096184 350.66964537 197.81835938 355.94970703 C197.7682624 361.04669982 197.7668582 366.1416058 197.79904556 371.23871994 C197.80279342 373.18198517 197.78907001 375.12536601 197.75750351 377.06837845 C197.11769327 387.45691297 197.11769327 387.45691297 201.16339111 396.449646 C203.73943233 397.9993887 206.1797948 398.98581219 209 400 C221.4780573 408.6109929 227.92767333 422.08730111 231.60546875 436.34765625 C234.04651154 452.75823102 231.54252287 469.18115983 222 483 C212.0843518 495.57671673 199.12164105 505.20839326 183 508 C170.96035492 508.89507206 159.17107007 508.9631913 148 504 C147.07445312 503.59910156 146.14890625 503.19820313 145.1953125 502.78515625 C129.45251905 495.09214812 119.9270761 482.06834419 113.9453125 465.9453125 C109.25775932 451.34029143 111.30809024 434.65923175 117.625 420.9375 C124.00430118 408.94692162 132.83388241 400.08305879 145 394 C145.495 350.44 145.495 350.44 146 306 C144.35 305.34 142.7 304.68 141 304 C131.09649481 298.24214815 123.25870841 290.18657092 118 280 C118 279.34 118 278.68 118 278 C79.72 278 41.44 278 2 278 C1.938125 296.995625 1.87625 315.99125 1.8125 335.5625 C1.76456299 341.5547876 1.71662598 347.5470752 1.66723633 353.72094727 C1.67705199 359.10433002 1.67705199 359.10433002 1.70146179 364.48765564 C1.70532083 366.88073387 1.68753027 369.27390768 1.6525116 371.66673279 C1.60359702 375.29885009 1.62394994 378.9247403 1.65942383 382.55688477 C1.629213 383.61842805 1.59900217 384.67997133 1.56787586 385.77368259 C1.64220343 388.87834022 1.8215953 391.12090288 3 394 C6.35968114 397.00643212 10.01007944 398.95057403 14 401 C26.65743041 411.10271968 33.80301797 425.14453184 36 441 C37.46550922 457.77755388 33.4629388 472.70904848 23.3125 486.1875 C13.47645336 497.79328988 0.00033664 506.85339913 -15.48852539 508.21948242 C-26.92653526 508.72247225 -37.36435132 508.58197704 -48 504 C-48.85207031 503.67257812 -49.70414063 503.34515625 -50.58203125 503.0078125 C-65.71135712 496.47956795 -75.76063757 482.38585279 -81.9765625 467.69140625 C-86.54969817 454.33528571 -85.69296115 436.79137209 -80 424 C-79.5875 423.06285156 -79.175 422.12570312 -78.75 421.16015625 C-72.86153569 409.23267031 -63.55886214 400.38297925 -52 394 C-51.34 394 -50.68 394 -50 394 C-50 300.28 -50 206.56 -50 110 C-51.65 109.34 -53.3 108.68 -55 108 C-68.95212395 99.30338462 -78.69007606 87.07032673 -83.203125 71.16796875 C-86.9659458 54.50317826 -84.19320327 36.36265299 -75.16796875 21.94921875 C-65.77355975 9.16943714 -53.07660966 -0.72706809 -37.16552734 -3.70263672 C-24.68702844 -5.41614423 -11.614668 -5.16925418 0 0 Z " fill="#000000" transform="translate(84,4)"/>
</svg>
